<svg width="400" height="400" viewBox="0 0 400 400" xmlns="http://www.w3.org/2000/svg">
    <rect width="400" height="400" fill="none"/>

    <g transform="translate(100, 80)">
        <path d="M20 180 L80 150 L140 180 L80 210 Z" fill="#1A365D" />
        <path d="M20 180 L20 220 L80 250 L80 210 Z" fill="#2A4365" />
        <path d="M80 210 L80 250 L140 220 L140 180 Z" fill="#2C5282" />

        <path d="M50 110 L110 80 L170 110 L110 140 Z" fill="#3182CE" />
        <path d="M50 110 L50 150 L110 180 L110 140 Z" fill="#4299E1" />
        <path d="M110 140 L110 180 L170 150 L170 110 Z" fill="#63B3ED" />

        <path d="M110 0 L180 70 L145 70 L145 100 L75 100 L75 70 L40 70 Z" fill="#00B4D8" />
    </g>

    <text x="200" y="350" font-family="Arial, sans-serif" font-weight="bold" font-size="52" text-anchor="middle" fill="#1A365D">
        Load<tspan fill="#3182CE">Up</tspan>
    </text>
</svg>
